<svg width="80" height="80" viewBox="0 0 80 80" fill="none" xmlns="http://www.w3.org/2000/svg">
<path d="M0 40C0 17.9086 17.9086 0 40 0C62.0914 0 80 17.9086 80 40C80 62.0914 62.0914 80 40 80C17.9086 80 0 62.0914 0 40Z" fill="#15172E"/>
<g clip-path="url(#clip0_264_19974)">
<path d="M24.354 36.2312C25.543 36.2312 26.5068 35.2656 26.5068 34.0744C26.5068 32.8833 25.543 31.9177 24.354 31.9177C23.165 31.9177 22.2012 32.8833 22.2012 34.0744C22.2012 35.2656 23.165 36.2312 24.354 36.2312Z" fill="#E52633"/>
<path d="M24.2948 39.7033H22.2156V48.0712H24.4515C27.2216 48.0712 29.0485 46.5628 29.0485 43.921C29.0501 41.2134 27.1558 39.7033 24.2948 39.7033ZM24.3716 46.5738H23.8733V41.2369H24.3716C26.3881 41.2369 27.3626 42.2462 27.3626 43.9053C27.3658 45.6414 26.2032 46.5738 24.3747 46.5738H24.3716ZM33.5046 36.7163H31.0321V29.8913H29.3713V38.2577H33.5077L33.5046 36.7163ZM55.7879 37.6172L56.3489 38.2687H57.8248L56.6121 36.8826C56.8565 36.6378 57.1009 36.3772 57.3955 36.0586L56.6622 35.2737C56.4383 35.5682 56.1966 35.8487 55.9383 36.1135L54.9371 34.9629C55.6532 34.4732 56.0339 34.0211 56.0339 33.365C56.0339 32.566 55.3586 32.012 54.3731 32.012C53.3562 32.012 52.7044 32.5582 52.7044 33.3807C52.7044 33.8704 52.9081 34.2126 53.3484 34.751C52.5744 35.1591 51.9241 35.6395 51.9241 36.586C51.9241 37.6942 52.8439 38.3879 53.9171 38.3879C54.6912 38.3832 55.1393 38.1384 55.7879 37.6172ZM54.3966 32.9286C54.71 32.9286 54.9418 33.1154 54.9418 33.4168C54.9418 33.7182 54.7225 33.9474 54.3073 34.2252C53.9939 33.8328 53.8592 33.6381 53.8592 33.409C53.8618 33.3422 53.8776 33.2767 53.9059 33.2161C53.9342 33.1556 53.9742 33.1014 54.0237 33.0567C54.0732 33.0119 54.1311 32.9775 54.1941 32.9555C54.2571 32.9335 54.3238 32.9244 54.3903 32.9286H54.3966ZM53.0946 36.5483C53.0946 36.068 53.4361 35.7744 53.9485 35.4495L55.1377 36.8434C54.7789 37.1573 54.4373 37.3739 53.9892 37.3739C53.8757 37.3803 53.762 37.3638 53.6548 37.3255C53.5477 37.2873 53.4493 37.2279 53.3654 37.151C53.2814 37.0741 53.2137 36.9812 53.1661 36.8777C53.1186 36.7742 53.0921 36.6622 53.0883 36.5483H53.0946ZM29.9354 48.0712H31.5978V39.7033H29.9354V48.0712ZM50.1897 36.8151H46.9683V34.4748H50.0377V33.0621H46.9683V31.3354H50.1583V29.8929H45.3012V38.2592H50.1756L50.1897 36.8151ZM36.0428 29.8913H34.3726V38.2577H36.035L36.0428 29.8913ZM26.609 19.9082L27.1151 19.5692L21.3178 14L20.981 14.2449C15.5343 18.2544 11.503 23.8968 9.47082 30.3548C7.43867 36.8128 7.5112 43.7512 9.67791 50.1652L9.80953 50.5576L17.7408 49.3176L17.5199 48.7478C13.4493 38.2749 17.2692 26.1461 26.6012 19.9082H26.609ZM40.6728 35.495L38.578 29.8913H36.7871L40.1761 38.2577H41.1413L44.5742 29.8913H42.7833L40.6728 35.495ZM70.3374 29.8442L70.2027 29.4565L62.2714 30.6966L62.4924 31.2664C66.552 41.7376 62.7274 53.8602 53.4048 60.0902L52.8956 60.4292L58.6928 66L59.0266 65.7536C64.4689 61.7451 68.4973 56.1063 70.5293 49.6526C72.5612 43.1989 72.4913 36.2649 70.3296 29.8537L70.3374 29.8442ZM54.3559 48.065H56.0277V41.2463H57.889V39.7033H52.4835V41.2463H54.3559V48.065ZM49.4987 41.0846C50.2398 41.0846 50.9496 41.3844 51.6468 41.9841L51.6249 40.1005C50.9682 39.7424 50.2338 39.5516 49.4862 39.5448C48.9087 39.5383 48.3358 39.6471 47.8008 39.8649C47.2658 40.0827 46.7795 40.405 46.3702 40.8132C45.9609 41.2213 45.6369 41.707 45.417 42.242C45.1972 42.7769 45.0859 43.3504 45.0897 43.9289C45.0832 44.4937 45.1892 45.0542 45.4015 45.5776C45.6138 46.1009 45.9282 46.5766 46.3262 46.9767C46.7242 47.3769 47.1978 47.6936 47.7194 47.9082C48.241 48.1228 48.8001 48.2311 49.364 48.2266C50.1471 48.2262 50.9184 48.0361 51.6124 47.6725L51.6343 45.7638C50.8916 46.4184 50.3276 46.6852 49.5081 46.6852C48.7676 46.6881 48.0563 46.3962 47.5306 45.8737C47.0049 45.3512 46.708 44.6409 46.7051 43.8991C46.7022 43.1572 46.9935 42.4446 47.5151 41.918C48.0366 41.3913 48.7457 41.0938 49.4862 41.0909L49.4987 41.0846ZM41.1851 44.2946H44.2546V42.8819H41.1851V41.1553H44.3768V39.7112H39.5196V48.0791H44.394V46.6366H41.1851V44.2946ZM37.9763 42.276C37.9763 40.4662 36.6132 39.7112 34.7079 39.7112H32.7039V48.0791H34.3648V44.8205H34.6092L36.7025 48.0712H38.6955L36.2371 44.6431C37.3997 44.1549 37.9763 43.3324 37.9763 42.2682V42.276ZM34.7298 43.5098H34.3648V41.1553H34.7753C35.7937 41.1553 36.3421 41.51 36.3421 42.309C36.3374 43.1331 35.7326 43.5098 34.7298 43.5098Z" fill="url(#paint0_linear_264_19974)"/>
</g>
<path fill-rule="evenodd" clip-rule="evenodd" d="M2 40C2 60.9868 19.0132 78 40 78C60.9868 78 78 60.9868 78 40C78 19.0132 60.9868 2 40 2C19.0132 2 2 19.0132 2 40ZM40 0C17.9086 0 0 17.9086 0 40C0 62.0914 17.9086 80 40 80C62.0914 80 80 62.0914 80 40C80 17.9086 62.0914 0 40 0Z" fill="white"/>
<defs>
<linearGradient id="paint0_linear_264_19974" x1="7.99985" y1="40" x2="71.9999" y2="40" gradientUnits="userSpaceOnUse">
<stop stop-color="#E95A1A"/>
<stop offset="1" stop-color="#E61B72"/>
</linearGradient>
<clipPath id="clip0_264_19974">
<rect width="64" height="52" fill="white" transform="translate(8 14)"/>
</clipPath>
</defs>
</svg>
