<svg width="68" height="68" viewBox="0 0 68 68" fill="none" xmlns="http://www.w3.org/2000/svg">
<g clip-path="url(#clip0_6466_57883)">
<path d="M42.8756 41.5101L43.8314 40.2812V52.8435C40.8274 54.482 37.2772 55.3013 33.8635 55.3013C22.1206 55.3013 12.4258 45.743 12.4258 33.8635C12.4258 22.1206 21.984 12.4258 33.8635 12.4258C39.5985 12.4258 45.0603 14.7471 49.0202 18.7069L49.8394 19.5262L42.1929 25.3977L41.5101 24.8515C39.3254 22.9398 36.5945 21.984 33.727 21.984C27.1728 21.984 21.8475 27.3093 21.8475 33.8635C21.8475 40.4177 27.1728 45.6065 33.727 45.6065C37.2772 45.7431 40.5543 44.241 42.8756 41.5101Z" fill="white"/>
<path d="M55.4379 33.9991C55.4379 35.7742 55.1648 37.5493 54.7552 39.1879C54.4821 40.0072 54.3456 40.8264 53.9359 41.6457C52.5705 45.1959 50.3857 48.3365 47.3817 50.6578C47.1086 50.7943 46.9721 51.0674 46.699 51.2039V36.3204H36.458L46.4259 28.6738H54.6186C55.1648 30.4489 55.4379 32.224 55.4379 33.9991Z" fill="white"/>
<path d="M28.5382 0.136546C13.7912 2.32129 2.32129 13.9277 0.136546 28.6747L0 29.0843L8.19277 31.8153V31.1325C9.55823 19.1165 19.1165 9.55823 31.1325 8.19277H31.8153L29.0843 0L28.5382 0.136546Z" fill="white"/>
<path d="M59.6708 31.1325L59.8073 31.8153L68.0001 29.0843L67.8635 28.6747C65.5422 13.9277 54.0724 2.45783 39.3254 0.136546L38.9157 0L36.1848 8.19277H36.8675C48.7471 9.55823 58.4418 19.253 59.6708 31.1325Z" fill="white"/>
<path d="M8.19277 36.8683V36.1855L0 38.9165L0.136546 39.3261C2.45783 54.0731 13.9277 65.543 28.5382 67.8643L28.9478 68.0008L31.6787 59.808L30.996 59.6715C19.1165 58.4426 9.55823 48.7478 8.19277 36.8683Z" fill="white"/>
<path d="M59.6706 36.8683C58.3051 48.8843 48.7469 58.4426 36.7308 59.808L36.0481 59.9446L38.779 68.1374L39.1887 68.0008C54.0722 65.543 65.5421 54.0731 67.8634 39.3261L67.9999 38.9165L59.8071 36.1855L59.6706 36.8683Z" fill="white"/>
</g>
<defs>
<clipPath id="clip0_6466_57883">
<rect width="68" height="68" fill="white"/>
</clipPath>
</defs>
</svg>
