<svg id="eJ61lkym95j1" xmlns="http://www.w3.org/2000/svg" xmlns:xlink="http://www.w3.org/1999/xlink" viewBox="0 0 722.47 236.64" shape-rendering="geometricPrecision" text-rendering="geometricPrecision">
<style><![CDATA[
#eJ61lkym95j35 {animation: eJ61lkym95j35_c_o 3000ms linear infinite normal forwards}@keyframes eJ61lkym95j35_c_o { 0% {opacity: 1;animation-timing-function: cubic-bezier(0.25,1,0.25,1)} 16.666667% {opacity: 0;animation-timing-function: cubic-bezier(0.25,1,0.25,1)} 33.333333% {opacity: 1;animation-timing-function: cubic-bezier(0.25,1,0.25,1)} 50% {opacity: 0;animation-timing-function: cubic-bezier(0.25,1,0.25,1)} 66.666667% {opacity: 1;animation-timing-function: cubic-bezier(0.25,1,0.25,1)} 83.333333% {opacity: 0;animation-timing-function: cubic-bezier(0.25,1,0.25,1)} 100% {opacity: 1}}
]]></style>
<defs><linearGradient id="eJ61lkym95j4-fill" x1="254.84" y1="39.24" x2="515.88" y2="39.24" spreadMethod="pad" gradientUnits="userSpaceOnUse" gradientTransform="translate(0 0)"><stop id="eJ61lkym95j4-fill-0" offset="0%" stop-color="#fa4d00"/><stop id="eJ61lkym95j4-fill-1" offset="100%" stop-color="#fa0072"/></linearGradient><linearGradient id="eJ61lkym95j6-fill" x1="0" y1="179" x2="759.81" y2="179" spreadMethod="pad" gradientUnits="userSpaceOnUse" gradientTransform="translate(0 0)"><stop id="eJ61lkym95j6-fill-0" offset="0%" stop-color="#fa4d00"/><stop id="eJ61lkym95j6-fill-1" offset="100%" stop-color="#fa0072"/></linearGradient><linearGradient id="eJ61lkym95j9-fill" x1="236.17" y1="39.24" x2="497.21" y2="39.24" spreadMethod="pad" gradientUnits="userSpaceOnUse" gradientTransform="translate(0 0)"><stop id="eJ61lkym95j9-fill-0" offset="0%" stop-color="#fa4d00"/><stop id="eJ61lkym95j9-fill-1" offset="100%" stop-color="#fa0072"/></linearGradient><linearGradient id="eJ61lkym95j10-fill" x1="0" y1="179.09" x2="722.47" y2="179.09" spreadMethod="pad" gradientUnits="userSpaceOnUse" gradientTransform="translate(0 0)"><stop id="eJ61lkym95j10-fill-0" offset="0%" stop-color="#fa4d00"/><stop id="eJ61lkym95j10-fill-1" offset="100%" stop-color="#fa0072"/></linearGradient><linearGradient id="eJ61lkym95j13-fill" x1="134.04" y1="39.24" x2="395.08" y2="39.24" spreadMethod="pad" gradientUnits="userSpaceOnUse" gradientTransform="translate(0 0)"><stop id="eJ61lkym95j13-fill-0" offset="0%" stop-color="#fa4d00"/><stop id="eJ61lkym95j13-fill-1" offset="100%" stop-color="#fa0072"/></linearGradient><linearGradient id="eJ61lkym95j15-fill" x1="0" y1="178.99" x2="518.34" y2="178.99" spreadMethod="pad" gradientUnits="userSpaceOnUse" gradientTransform="translate(0 0)"><stop id="eJ61lkym95j15-fill-0" offset="0%" stop-color="#fa4d00"/><stop id="eJ61lkym95j15-fill-1" offset="100%" stop-color="#fa0072"/></linearGradient><linearGradient id="eJ61lkym95j17-fill" x1="0" y1="28.6" x2="338.94" y2="28.6" spreadMethod="pad" gradientUnits="userSpaceOnUse" gradientTransform="translate(0 0)"><stop id="eJ61lkym95j17-fill-0" offset="0%" stop-color="#fa4d00"/><stop id="eJ61lkym95j17-fill-1" offset="100%" stop-color="#fa0072"/></linearGradient><linearGradient id="eJ61lkym95j19-fill" x1="0" y1="63.56" x2="407.81" y2="63.56" spreadMethod="pad" gradientUnits="userSpaceOnUse" gradientTransform="translate(0 0)"><stop id="eJ61lkym95j19-fill-0" offset="0%" stop-color="#fa4d00"/><stop id="eJ61lkym95j19-fill-1" offset="100%" stop-color="#fa0072"/></linearGradient><linearGradient id="eJ61lkym95j26-fill" x1="0" y1="63.56" x2="377.16" y2="63.56" spreadMethod="pad" gradientUnits="userSpaceOnUse" gradientTransform="translate(0 0)"><stop id="eJ61lkym95j26-fill-0" offset="0%" stop-color="#fa4d00"/><stop id="eJ61lkym95j26-fill-1" offset="100%" stop-color="#fa0072"/></linearGradient><linearGradient id="eJ61lkym95j33-fill" x1="0" y1="63.56" x2="643.94" y2="63.56" spreadMethod="pad" gradientUnits="userSpaceOnUse" gradientTransform="translate(0 0)"><stop id="eJ61lkym95j33-fill-0" offset="0%" stop-color="#fa4d00"/><stop id="eJ61lkym95j33-fill-1" offset="100%" stop-color="#fa0072"/></linearGradient></defs><g transform="matrix(.844334 0 0 0.844334 96.007059 82.191549)"><path d="M24.5,11.88v44h-12.62v-44h-11.88L0,1.23h36.38v10.65h-11.88ZM53.47,22.04h21.8v-20.81h12.62v54.65h-12.62v-23.19h-21.8v23.19h-12.62v-54.65h12.62v20.81Zm70.99-10.16h-18.27v10.57h17.37v10.65h-17.37v12.13h18.27v10.65h-30.89v-54.65h30.89v10.65ZM155.48,1.23l13.85,34.99L183.18,1.23h13.6L173.59,55.88h-8.52L141.88,1.23h13.6Zm58.14,0v54.65h-12.62v-54.65h12.62Zm48.05,52.93c-4.83,2.46-8.77,2.95-12.04,2.95-10.08,0-16.88-3.44-21.47-7.95-4.92-4.75-8.52-11.96-8.52-20.73s3.61-15.81,8.52-20.57c4.83-4.67,11.88-7.87,20.4-7.87c3.61,0,7.78.74,13.11,3.03v14.59c-2.79-2.95-6.96-5.82-12.78-5.82-4.59,0-8.28,1.48-11.14,4.26-3.03,2.95-5.16,7.37-5.16,12.62c0,5.65,2.29,9.67,4.75,12.04c1.15,1.15,5.08,4.59,11.8,4.59c3.28,0,7.7-.9,12.54-5.65v14.5Zm15.61-29.33h20.98v10.32h-20.98v-10.32Zm48.94-23.6v44h16.96v10.65h-29.58v-54.65h12.62Zm69.8,6.72c5.16,5,8.52,12.21,8.52,20.65c0,7.29-2.62,14.75-8.52,20.49-5.08,4.92-11.96,8.03-21.14,8.03-10.24,0-17.21-4.1-21.3-8.03-5.24-4.92-8.52-12.29-8.52-20.32s3.52-15.81,8.44-20.73c3.69-3.69,10.49-8.03,21.39-8.03c8.52,0,15.65,2.62,21.14,7.95Zm-33.19,8.36C360.45,18.6,358,22.62,358,28.68c0,5,1.64,9.01,5,12.29c3.52,3.36,7.46,4.51,11.72,4.51c5.57,0,9.5-2.05,12.13-4.67c2.13-2.05,4.75-5.9,4.75-12.21c0-5.65-2.29-9.83-4.75-12.29-2.7-2.62-7.05-4.67-12.04-4.67s-9.01,1.72-11.96,4.67Zm48.13,39.58v-54.66h10.98L451.6,36.46v-35.23h12.62v54.65h-10.98l-29.66-35.4v35.4h-12.62ZM490.47,1.23c7.21,0,14.83,1.06,21.55,7.54c4.83,4.67,7.87,11.06,7.87,19.58s-2.95,14.83-7.46,19.34c-7.54,7.62-16.96,8.19-21.55,8.19h-17.7v-54.65h17.29Zm-4.67,44h3.36c2.62,0,8.36-.25,12.46-3.69c2.95-2.46,5.33-7.13,5.33-13.19s-2.38-9.67-4.51-11.8c-4.1-4.1-9.42-4.67-13.27-4.67h-3.36v33.35ZM575.73,7.95c5.16,5,8.52,12.21,8.52,20.65c0,7.29-2.62,14.75-8.52,20.49-5.08,4.92-11.96,8.03-21.14,8.03-10.24,0-17.21-4.1-21.3-8.03-5.24-4.92-8.52-12.29-8.52-20.32s3.52-15.81,8.44-20.73c3.69-3.69,10.49-8.03,21.39-8.03c8.52,0,15.65,2.62,21.14,7.95Zm-33.19,8.36c-2.38,2.29-4.83,6.31-4.83,12.37c0,5,1.64,9.01,5,12.29c3.52,3.36,7.46,4.51,11.72,4.51c5.57,0,9.5-2.05,12.13-4.67c2.13-2.05,4.75-5.9,4.75-12.21c0-5.65-2.29-9.83-4.75-12.29-2.7-2.62-7.05-4.67-12.04-4.67s-9.01,1.72-11.96,4.67Zm48.13,39.58v-54.66h10.98l29.66,35.23v-35.23h12.62v54.65h-10.98l-29.66-35.4v35.4h-12.62ZM164.73,71.24c6.96,0,11.31,2.29,13.93,4.75c2.29,2.21,4.75,6.15,4.75,12.21c0,3.44-.74,7.7-4.26,11.14-1.88,1.8-4.59,3.44-7.62,4.18l16.8,22.37h-15.4l-14.75-21.55v21.55h-12.62v-54.65h19.17Zm-6.56,24.83h2.87c2.29,0,5.41-.25,7.54-2.38.9-.9,2.05-2.62,2.05-5.33c0-3.11-1.48-4.75-2.54-5.57-2.05-1.56-5.33-1.72-6.96-1.72h-2.95v15Zm85.54-18.11c5.16,5,8.52,12.21,8.52,20.65c0,7.29-2.62,14.75-8.52,20.49-5.08,4.92-11.96,8.03-21.14,8.03-10.24,0-17.21-4.1-21.3-8.03-5.24-4.92-8.52-12.29-8.52-20.32s3.52-15.81,8.44-20.73c3.69-3.69,10.49-8.03,21.39-8.03c8.52,0,15.65,2.62,21.14,7.95Zm-33.19,8.36c-2.38,2.29-4.83,6.31-4.83,12.37c0,5,1.64,9.01,5,12.29c3.52,3.36,7.46,4.51,11.72,4.51c5.57,0,9.5-2.05,12.13-4.67c2.13-2.05,4.75-5.9,4.75-12.21c0-5.65-2.29-9.83-4.75-12.29-2.7-2.62-7.05-4.67-12.04-4.67s-9.01,1.72-11.96,4.67Zm97.34,17.29c0,5.24-.66,11.72-6.06,17.29-5.24,5.41-11.31,6.23-17.04,6.23s-11.8-.82-17.04-6.23c-5.41-5.57-6.06-12.04-6.06-17.29v-32.37h12.62v32.04c0,2.38.16,6.39,2.87,9.18c2.21,2.38,5.24,2.87,7.62,2.87s5.41-.49,7.62-2.87c2.7-2.79,2.87-6.8,2.87-9.18v-32.04h12.62v32.37Zm24.58-32.37v44h16.96v10.65h-29.58v-54.65h12.62Zm54.98,10.65h-18.27v10.57h17.37v10.65h-17.37v12.13h18.27v10.65h-30.89v-54.65h30.89v10.65Zm29.42,0v44h-12.62v-44h-11.88v-10.65h36.38v10.65h-11.88Zm41.95,0v44h-12.62v-44h-11.88v-10.65h36.38v10.65h-11.88Zm49.41,0h-18.27v10.57h17.37v10.65h-17.37v12.13h18.27v10.65h-30.89v-54.65h30.89v10.65Z" transform="translate(-7.838196 0)" fill="url(#eJ61lkym95j33-fill)"/><g transform="matrix(.601211 0 0 0.601211-112.768375-45.34121)"><g id="eJ61lkym95j35" transform="matrix(1.548695 0 0 1.548695-84.526205-219.686453)"><g><g><circle r="18.29" transform="translate(129.698044 220.946199)" fill="#e62733"/></g></g></g></g></g></svg>
